<?xml version="1.0" standalone="no"?>
<!DOCTYPE svg PUBLIC "-//W3C//DTD SVG 20010904//EN"
 "http://www.w3.org/TR/2001/REC-SVG-20010904/DTD/svg10.dtd">
<svg version="1.0" xmlns="http://www.w3.org/2000/svg"
 width="748.000000pt" height="748.000000pt" viewBox="0 0 748.000000 748.000000"
 preserveAspectRatio="xMidYMid meet">

<g transform="translate(0.000000,748.000000) scale(0.100000,-0.100000)"
fill="#A9A9A9" stroke="none">
<path d="M4725 5130 c-71 -55 -233 -179 -360 -275 -126 -96 -389 -296 -584
-445 -195 -148 -358 -270 -362 -270 -5 0 -122 88 -261 195 l-253 196 -49 -53
c-28 -29 -174 -179 -325 -333 -151 -154 -381 -388 -510 -520 -540 -550 -742
-756 -1034 -1053 -170 -173 -307 -316 -304 -318 4 -4 1901 549 2244 653 l51
16 213 -86 c117 -48 213 -86 215 -84 3 2 -49 270 -174 900 -21 108 -37 197
-35 197 2 0 68 -55 146 -123 78 -67 266 -228 417 -357 151 -129 289 -247 305
-261 17 -15 161 -138 320 -274 160 -136 301 -257 314 -269 l23 -21 -7 278 -7
278 63 -24 c35 -14 163 -63 285 -111 121 -47 224 -86 228 -86 4 0 -155 321
-354 714 -198 393 -360 717 -360 721 0 11 52 2 318 -54 150 -31 232 -45 232
-37 0 6 -14 90 -30 185 -16 96 -28 177 -26 178 2 2 82 -69 177 -158 96 -90
226 -210 289 -269 173 -160 568 -528 715 -665 314 -293 360 -335 363 -326 2 5
-6 33 -18 62 -23 63 -25 73 -7 66 6 -3 61 -26 121 -51 l110 -46 -79 82 c-44
46 -142 148 -220 228 -77 80 -196 204 -265 275 -69 72 -240 249 -380 394 -140
145 -266 275 -279 290 -34 37 -494 513 -626 648 l-110 113 -130 -100z"/>
</g>
</svg>
